<svg xmlns="http://www.w3.org/2000/svg" viewBox="0 0 900 420" role="img" aria-label="B2B partner terms">
  <defs>
    <linearGradient id="bg" x1="0" x2="1" y1="0" y2="1">
      <stop offset="0" stop-color="#f3fbf6"/>
      <stop offset="1" stop-color="#dff4e8"/>
    </linearGradient>
    <linearGradient id="green" x1="0" x2="1">
      <stop offset="0" stop-color="#00b472"/>
      <stop offset="1" stop-color="#318a42"/>
    </linearGradient>
    <filter id="shadow" x="-20%" y="-20%" width="140%" height="140%">
      <feDropShadow dx="0" dy="18" stdDeviation="18" flood-color="#0f172a" flood-opacity=".14"/>
    </filter>
  </defs>
  <rect width="900" height="420" rx="34" fill="url(#bg)"/>
  <circle cx="790" cy="52" r="118" fill="#fff" opacity=".55"/>
  <circle cx="98" cy="350" r="140" fill="#00b472" opacity=".08"/>
  <g filter="url(#shadow)">
    <rect x="98" y="72" width="310" height="250" rx="28" fill="#fff"/>
    <rect x="128" y="110" width="132" height="42" rx="21" fill="#eef8f1"/>
    <text x="154" y="139" fill="#17633a" font-family="Arial, sans-serif" font-size="24" font-weight="800">B2B</text>
    <path d="M132 190h210M132 232h180M132 274h230" stroke="#d7e7dc" stroke-width="14" stroke-linecap="round"/>
    <circle cx="337" cy="132" r="34" fill="url(#green)"/>
    <path d="M321 132l11 11 25-27" fill="none" stroke="#fff" stroke-width="8" stroke-linecap="round" stroke-linejoin="round"/>
  </g>
  <g filter="url(#shadow)">
    <rect x="486" y="98" width="306" height="196" rx="28" fill="#111827"/>
    <path d="M534 180h210" stroke="#2b3443" stroke-width="16" stroke-linecap="round"/>
    <path d="M534 224h154" stroke="#2b3443" stroke-width="16" stroke-linecap="round"/>
    <text x="534" y="150" fill="#fff" font-family="Arial, sans-serif" font-size="30" font-weight="900">EVLine</text>
    <rect x="646" y="124" width="88" height="38" rx="19" fill="#00b472"/>
    <text x="671" y="150" fill="#fff" font-family="Arial, sans-serif" font-size="19" font-weight="900">STO</text>
  </g>
  <path d="M424 202h50" stroke="#00b472" stroke-width="10" stroke-linecap="round"/>
  <path d="M460 181l24 21-24 21" fill="none" stroke="#00b472" stroke-width="10" stroke-linecap="round" stroke-linejoin="round"/>
</svg>
