<svg xmlns="http://www.w3.org/2000/svg" viewBox="0 0 900 420" role="img" aria-label="Official payments and documents">
  <defs>
    <linearGradient id="bg" x1="0" x2="1" y1="0" y2="1">
      <stop offset="0" stop-color="#f7faf8"/>
      <stop offset="1" stop-color="#e6f5ed"/>
    </linearGradient>
    <filter id="shadow" x="-20%" y="-20%" width="140%" height="140%">
      <feDropShadow dx="0" dy="18" stdDeviation="18" flood-color="#0f172a" flood-opacity=".13"/>
    </filter>
  </defs>
  <rect width="900" height="420" rx="34" fill="url(#bg)"/>
  <g filter="url(#shadow)">
    <rect x="142" y="58" width="286" height="304" rx="24" fill="#fff"/>
    <path d="M186 122h154M186 168h196M186 214h142M186 260h178" stroke="#d8e7dd" stroke-width="14" stroke-linecap="round"/>
    <rect x="186" y="296" width="104" height="34" rx="17" fill="#111827"/>
    <text x="211" y="320" fill="#fff" font-family="Arial, sans-serif" font-size="18" font-weight="900">DOC</text>
  </g>
  <g filter="url(#shadow)">
    <rect x="392" y="92" width="266" height="244" rx="28" fill="#111827"/>
    <text x="436" y="158" fill="#fff" font-family="Arial, sans-serif" font-size="32" font-weight="900">INVOICE</text>
    <path d="M438 202h156M438 242h118" stroke="#2b3443" stroke-width="14" stroke-linecap="round"/>
    <circle cx="602" cy="260" r="36" fill="#00b472"/>
    <path d="M586 260l11 11 25-28" fill="none" stroke="#fff" stroke-width="8" stroke-linecap="round" stroke-linejoin="round"/>
  </g>
  <path d="M702 118c38 21 61 58 61 100s-23 79-61 100" fill="none" stroke="#00b472" stroke-width="10" stroke-linecap="round" opacity=".65"/>
  <path d="M712 316l-20 6 4-21" fill="none" stroke="#00b472" stroke-width="10" stroke-linecap="round" stroke-linejoin="round" opacity=".65"/>
</svg>
