<svg version="1.2" xmlns="http://www.w3.org/2000/svg" viewBox="0 0 902 368" width="902" height="368">
	<style>
		.s0 { opacity: 1;fill: #4e833a } 
		.s1 { fill: #477d3a } 
		.s2 { fill: #568a3c } 
		.s3 { fill: #5e933c } 
		.s4 { fill: #64993d } 
		.s5 { fill: #306434 } 
		.s6 { fill: #346837 } 
		.s7 { fill: #3d7338 } 
		.s8 { fill: #6fa13e } 
	</style>
	<g id="Background">
		<path id="Path 0" class="s0" d="m417 200l13-1 12-18 22-5-1 9-9 49h-10l-14 7-21 1 6-35zm146 16l6-29 38 5-6 34-18 2-7 10-17 4zm290-25l7-3h28l2 22-4 14h-48v-17h8l8-2zm-79 4l3-3 19 2 14 7-1 6h6l1 17-10 1 1 9h-8l-10-6-21 4-1-4 1-19zm-148 37l6-36 15 1 23 8v3l-6 26-15-4zm89-27v-1l39 1-4 23-1 4-38-2z"/>
		<path id="Path 1" class="s1" d="m559 242l17-4 7-10 18-2-7 38h-32l-7-2zm209-10l21-4 10 6h8l5 7 10 4 30 1 27-6-4 20-10 3-24 4-34-1-21-7-14-13zm-142 0l23-2 15 4-4 29-6 1h-33zm84 32h-5v-3l6-31 38 2-5 32zm-301-22l21-1 14-7h10l80 2-5 23-1 5h-17-101-5z"/>
		<path id="Path 2" class="s2" d="m421 176l7-38h43l-1 8-6 30-22 5-12 18-13 1zm269-6l17-6 20-1 17 5 10 12 2 14-2 11-39-1v-8l-5-6-16-2-13 5-11 12-23-8-15-1 5-30 5-1h32l-1 15-1 3 2-2zm88 19l18-16 28-9h29l12 3 12 6 11 15h-28l-7 3-9-6-13-1-9 4-12 13-14-7-19-2zm-209-2l5-22h38l-5 27zm247 37l-1-17h14 9v17h-18z"/>
		<path id="Path 3" class="s3" d="m428 138l5-28h43l-1 5-4 23z"/>
		<path id="Path 4" class="s4" d="m577 121l2-6 13-9h17l8 4 5 11-2 12-8 9-22 3-9-4-5-8z"/>
		<path id="Path 8" class="s0" d="m48 95l7-11 25-22 7 10 15 6 21 14 3 20h-50zm60 61l1-13h53v5l6 6 18 2 7 32h-33l1-17h-27v-6l-8-6zm146 103l12-25 21 3 44 29-4 9-15 17-17-14z"/>
		<path id="Path 9" class="s5" d="m27 235l34-3-3 31h8l-2 22 4 4 9 4 33 5 47 23 13 11 4 6v7l-43-8-26-11-21-13-15-12-23-26-16-29z"/>
		<path id="Path 10" class="s6" d="m27 235l-7-21-2-26 16 2 5 6 11 5 15 1-4 30zm147 110v-7l-4-6-13-11-47-23-33-5-9-4-4-4 2-22h66v6l10 10h6l24 18 37 20 24 7 10 12-33 8-21 1z"/>
		<path id="Path 11" class="s7" d="m18 188l1-29 4-15 48 4-6 54-15-1-11-5-5-6zm134 44h-53l3-33h42zm11 7l41-1 5 24 11 1v8l7 8h5l26 15 24 7 9 10-21 15-27 10-10-12-24-7-37-20-24-18h-6l-10-10v-6h28z"/>
		<path id="Path 12" class="s1" d="m23 144l12-31 13-18 28 17-5 36zm111 27h-28l2-15 18 3 8 6zm10 28h14l2-11h33l11 50-41 1v-7h-11zm76 64h32l2-4 41 19 17 14-10 11-11 8-9-10-24-7-26-15h-5l-7-8z"/>
		<path id="Path 13" class="s2" d="m110 43l7-2 34 39 23 15v4l6 6v7h-3v4h-4v-4h-47l-3-20-21-14-15-6-7-10 22-15zm52 100l7-1 3-16h8l6 30-18-2-6-6zm95 28l-22 52-9-57h18zm9 63l15-32 16 1 15 6 23 15 13 2-7 23-10 17-44-29z"/>
		<path id="Path 14" class="s3" d="m117 41l33-10 10 15 54 46 1 20h-27-8v-7l-6-6v-4l-23-15zm55 85l1-10h4l3 8v2zm54 40l-7-40h20l30 16-12 29-13-5zm55 36l11-23 61 13-3 28-2 6-13-2-23-15-15-6z"/>
		<path id="Path 15" class="s4" d="m150 31l14-3h32l6 13 32 27 23 27 19 9 6 8-4 11-9 19-30-16h-20l-4-14-1-20-54-46zm142 148l14-29 43 4 1 4 3 34z"/>
		<path id="Path 16" class="s8" d="m282 112l-6-8-19-9-23-27-32-27-6-13 13 1 17 3 34 12 27 16 28 26 16 22 11 22 7 24-43-4 12-28 4-10h-11-17z"/>
	</g>
</svg>