<svg xmlns="http://www.w3.org/2000/svg" viewBox="0 0 1080 540">
<defs>
<linearGradient id="bg" x1="0" y1="0" x2="0" y2="1">
  <stop offset="0" stop-color="#f7fbf8"/><stop offset="1" stop-color="#eef7f1"/>
</linearGradient>
<linearGradient id="oil" x1="0" y1="0" x2="0" y2="1">
  <stop offset="0" stop-color="#67b34a"/><stop offset="1" stop-color="#3fa66a"/>
</linearGradient>
</defs>
<rect width="1080" height="540" rx="24" fill="url(#bg)"/>
<rect x="0" y="430" width="1080" height="110" fill="#e2ece5"/>

<g transform="translate(70,-52) scale(0.95)" fill="#d2e3d9">
  <path d="M120 330 q40 -78 150 -92 q60 -52 170 -54 q120 -2 180 48 q24 20 36 38 q90 8 120 42 q14 18 10 48 l-26 6 q-6 -36 -44 -36 q-40 0 -44 40 l-300 0 q-4 -40 -44 -40 q-40 0 -44 40 l-140 0 q-30 -12 -24 -40 Z"/>
  <circle cx="716" cy="370" r="34"/>
  <circle cx="372" cy="370" r="34"/>
</g>
<g><path fill-opacity="0.85" d="M836 168 l-16 30 h12 l-10 26 26 -32 h-12 l12 -24 z" fill="#3fa66a"/></g>

<ellipse cx="165" cy="452" rx="62" ry="9" fill="#0f1713" opacity=".08"/>
<g transform="translate(110,300)">
  <rect x="0" y="22" width="110" height="130" rx="14" fill="url(#oil)"/>
  <rect x="10" y="38" width="90" height="58" rx="8" fill="white" opacity=".94"/>
  <circle cx="34" cy="62" r="14" fill="#67b34a"/><text x="34" y="67" text-anchor="middle" font-family="Arial" font-weight="bold" font-size="13" fill="#15201a">EV</text>
  <text x="62" y="60" font-family="Arial" font-weight="bold" font-style="italic" font-size="16" fill="#15201a">Line</text>
  <text x="55" y="84" text-anchor="middle" font-family="Arial" font-size="10.5" fill="#6f7b75">DM-i ENGINE OIL</text>
  <rect x="12" y="2" width="34" height="24" rx="6" fill="#1b7a4b"/>
  <rect x="56" y="10" width="40" height="14" rx="7" fill="#1b7a4b"/>
  <text x="55" y="140" text-anchor="middle" font-family="Arial" font-weight="bold" font-size="12" fill="#ffffff">0W-20</text>
</g>

<ellipse cx="296" cy="452" rx="40" ry="9" fill="#0f1713" opacity=".08"/>
<g transform="translate(258,346)">
  <rect x="0" y="16" width="76" height="90" rx="14" fill="#f2f6f3" stroke="#d8e4dc" stroke-width="3"/>
  <rect x="14" y="0" width="48" height="20" rx="8" fill="#1b7a4b"/>
  <g stroke="#3fa66a" stroke-width="5"><line x1="14" y1="32" x2="14" y2="92"/><line x1="26" y1="32" x2="26" y2="92"/><line x1="38" y1="32" x2="38" y2="92"/><line x1="50" y1="32" x2="50" y2="92"/><line x1="62" y1="32" x2="62" y2="92"/></g>
</g>

<ellipse cx="420" cy="452" rx="58" ry="9" fill="#0f1713" opacity=".08"/>
<g transform="translate(352,372)">
  <rect x="0" y="0" width="136" height="64" rx="10" fill="white" stroke="#d8e4dc" stroke-width="3"/>
  <g stroke="#3fa66a" stroke-width="4"><path d="M12 10 l8 44"/><path d="M28 10 l8 44"/><path d="M44 10 l8 44"/><path d="M60 10 l8 44"/><path d="M76 10 l8 44"/><path d="M92 10 l8 44"/><path d="M108 10 l8 44"/><path d="M124 10 l8 44"/></g>
  <rect x="0" y="0" width="136" height="12" rx="6" fill="#1b7a4b" opacity=".9"/>
</g>

<ellipse cx="560" cy="452" rx="52" ry="9" fill="#0f1713" opacity=".08"/>
<g transform="translate(508,344)">
  <g><rect x="6" y="0" width="10" height="34" rx="4" fill="#f4efe6" stroke="#d8e4dc" stroke-width="2"/><rect x="2" y="34" width="18" height="16" rx="3" fill="#b9c4bd"/><rect x="6" y="50" width="10" height="26" fill="#8e9b93"/><path d="M6 76 h10 l-5 12 z" fill="#6f7b75"/></g>
  <g transform="translate(28,0)"><rect x="6" y="0" width="10" height="34" rx="4" fill="#f4efe6" stroke="#d8e4dc" stroke-width="2"/><rect x="2" y="34" width="18" height="16" rx="3" fill="#b9c4bd"/><rect x="6" y="50" width="10" height="26" fill="#8e9b93"/><path d="M6 76 h10 l-5 12 z" fill="#6f7b75"/></g>
  <g transform="translate(56,0)"><rect x="6" y="0" width="10" height="34" rx="4" fill="#f4efe6" stroke="#d8e4dc" stroke-width="2"/><rect x="2" y="34" width="18" height="16" rx="3" fill="#b9c4bd"/><rect x="6" y="50" width="10" height="26" fill="#8e9b93"/><path d="M6 76 h10 l-5 12 z" fill="#6f7b75"/></g>
  <g transform="translate(84,0)"><rect x="6" y="0" width="10" height="34" rx="4" fill="#f4efe6" stroke="#d8e4dc" stroke-width="2"/><rect x="2" y="34" width="18" height="16" rx="3" fill="#b9c4bd"/><rect x="6" y="50" width="10" height="26" fill="#8e9b93"/><path d="M6 76 h10 l-5 12 z" fill="#6f7b75"/></g>
  <text x="56" y="108" text-anchor="middle" font-family="Arial" font-size="11" fill="#6f7b75">свічки (DM-i)</text>
</g>

<ellipse cx="680" cy="452" rx="34" ry="9" fill="#0f1713" opacity=".08"/>
<g transform="translate(648,352)">
  <rect x="6" y="20" width="56" height="80" rx="10" fill="white" stroke="#d8e4dc" stroke-width="3"/>
  <rect x="6" y="52" width="56" height="48" rx="10" fill="#3fa66a" opacity=".9"/>
  <rect x="18" y="4" width="32" height="18" rx="5" fill="#1b7a4b"/>
  <text x="34" y="80" text-anchor="middle" font-family="Arial" font-weight="bold" font-size="12" fill="white">DOT4</text>
</g>

<ellipse cx="776" cy="452" rx="40" ry="9" fill="#0f1713" opacity=".08"/>
<g transform="translate(736,332)">
  <rect x="0" y="26" width="80" height="94" rx="12" fill="#f2f6f3" stroke="#d8e4dc" stroke-width="3"/>
  <rect x="10" y="44" width="60" height="40" rx="6" fill="white"/>
  <path d="M40 52 q10 14 0 22 q-10 -8 0 -22" fill="#3fa66a"/>
  <text x="40" y="100" text-anchor="middle" font-family="Arial" font-size="9.5" fill="#6f7b75">діелектрик</text>
  <rect x="22" y="8" width="26" height="20" rx="5" fill="#1b7a4b"/>
  <rect x="52" y="14" width="22" height="12" rx="6" fill="#1b7a4b"/>
</g>

<ellipse cx="965" cy="452" rx="70" ry="9" fill="#0f1713" opacity=".08"/>
<g transform="translate(878,272)">
  <path d="M10 60 L160 60 L148 26 L22 26 Z" fill="#c8a06b"/>
  <rect x="10" y="60" width="150" height="118" rx="8" fill="#dbb88a"/>
  <rect x="10" y="98" width="150" height="26" fill="#2e8f5b"/>
  <circle cx="48" cy="111" r="11" fill="#67b34a"/>
  <text x="48" y="115" text-anchor="middle" font-family="Arial" font-weight="bold" font-size="10" fill="#15201a">EV</text>
  <text x="66" y="116" font-family="Arial" font-weight="bold" font-style="italic" font-size="14" fill="white">Line</text>
  <path d="M10 60 L-12 30 L26 38 Z" fill="#b98f5e"/>
  <path d="M160 60 L182 30 L144 38 Z" fill="#b98f5e"/>
  <rect x="24" y="138" width="80" height="22" rx="5" fill="white"/>
  <text x="64" y="153" text-anchor="middle" font-family="Arial" font-weight="bold" font-size="10" fill="#1b7a4b">ОРИГІНАЛ ✓</text>
</g>

<text x="540" y="500" text-anchor="middle" font-family="Arial" font-weight="bold" font-size="17" fill="#15201a">Комплект ТО для сучасного китайського авто</text>
<text x="540" y="522" text-anchor="middle" font-family="Arial" font-size="12.5" fill="#6f7b75">оригінальні розхідники · зібрано під ваш VIN · з технологічними картами</text>
</svg>