<svg xmlns="http://www.w3.org/2000/svg" viewBox="0 0 560 360">
<rect width="560" height="360" rx="20" fill="#eef7f1"/>
<rect x="18" y="18" width="524" height="324" rx="14" fill="white" stroke="#d8e4dc"/>
<text x="40" y="58" font-family="Arial" font-weight="bold" font-size="22" fill="#15201a">Базове ТО</text>
<text x="40" y="82" font-family="Arial" font-size="13" fill="#6f7b75">олива (DM-i) · фільтри · дрібниці за регламентом</text>
<line x1="40" y1="96" x2="520" y2="96" stroke="#d8e4dc"/>
<g transform="translate(60,130) scale(1)">
<rect x="0" y="14" width="64" height="80" rx="8" fill="#3fa66a"/>
<rect x="6" y="22" width="52" height="40" rx="5" fill="white" opacity=".92"/>
<text x="32" y="47" text-anchor="middle" font-family="Arial" font-weight="bold" font-size="13" fill="#15201a">OIL</text>
<rect x="8" y="0" width="20" height="18" rx="4" fill="#1b7a4b"/>
<rect x="34" y="6" width="22" height="10" rx="5" fill="#1b7a4b"/></g><g transform="translate(170,128) scale(1)">
<rect x="0" y="10" width="56" height="64" rx="28" fill="white" stroke="#d8e4dc" stroke-width="3"/>
<rect x="10" y="0" width="36" height="16" rx="8" fill="#1b7a4b"/>
<g stroke="#3fa66a" stroke-width="4"><line x1="10" y1="24" x2="10" y2="62"/><line x1="19" y1="24" x2="19" y2="62"/><line x1="28" y1="24" x2="28" y2="62"/><line x1="37" y1="24" x2="37" y2="62"/><line x1="46" y1="24" x2="46" y2="62"/></g>
<text x="28" y="92" text-anchor="middle" font-family="Arial" font-size="11" fill="#6f7b75">масляний</text></g><g transform="translate(260,128) scale(1)">
<rect x="0" y="10" width="56" height="64" rx="28" fill="white" stroke="#d8e4dc" stroke-width="3"/>
<rect x="10" y="0" width="36" height="16" rx="8" fill="#1b7a4b"/>
<g stroke="#3fa66a" stroke-width="4"><line x1="10" y1="24" x2="10" y2="62"/><line x1="19" y1="24" x2="19" y2="62"/><line x1="28" y1="24" x2="28" y2="62"/><line x1="37" y1="24" x2="37" y2="62"/><line x1="46" y1="24" x2="46" y2="62"/></g>
<text x="28" y="92" text-anchor="middle" font-family="Arial" font-size="11" fill="#6f7b75">повітряний</text></g><g transform="translate(350,128) scale(1)">
<rect x="0" y="10" width="56" height="64" rx="28" fill="white" stroke="#d8e4dc" stroke-width="3"/>
<rect x="10" y="0" width="36" height="16" rx="8" fill="#1b7a4b"/>
<g stroke="#3fa66a" stroke-width="4"><line x1="10" y1="24" x2="10" y2="62"/><line x1="19" y1="24" x2="19" y2="62"/><line x1="28" y1="24" x2="28" y2="62"/><line x1="37" y1="24" x2="37" y2="62"/><line x1="46" y1="24" x2="46" y2="62"/></g>
<text x="28" y="92" text-anchor="middle" font-family="Arial" font-size="11" fill="#6f7b75">салонний</text></g><g transform="translate(440,150) scale(0.9)">
<rect x="0" y="0" width="80" height="52" rx="6" fill="#15201a"/>
<rect x="0" y="18" width="80" height="14" fill="#3fa66a"/>
<text x="40" y="29" text-anchor="middle" font-family="Arial" font-weight="bold" font-size="11" fill="white">щітки</text></g>
<rect x="40" y="296" width="200" height="28" rx="14" fill="#3fa66a"/>
<text x="140" y="315" text-anchor="middle" font-family="Arial" font-weight="bold" font-size="13" fill="white">100% оригінал</text>
<text x="520" y="318" text-anchor="end" font-family="Arial" font-size="11" fill="#6f7b75">ілюстрація · вміст залежить від моделі</text>
</svg>