<svg xmlns="http://www.w3.org/2000/svg" viewBox="0 0 96 96" role="img" aria-label="Оригінальні рідини і фільтри">
  <defs>
    <linearGradient id="g" x1="16" y1="10" x2="78" y2="86" gradientUnits="userSpaceOnUse">
      <stop stop-color="#ecfff6"/>
      <stop offset="1" stop-color="#d9f5e5"/>
    </linearGradient>
  </defs>
  <rect x="10" y="8" width="76" height="80" rx="22" fill="url(#g)"/>
  <path d="M39 22h18v13l10 14v23c0 6-5 10-11 10H40c-6 0-11-4-11-10V49l10-14V22z" fill="#fff" stroke="#82d9aa" stroke-width="3" stroke-linejoin="round"/>
  <path d="M38 21h20" stroke="#22483a" stroke-width="5" stroke-linecap="round"/>
  <path d="M32 58c8-5 15 5 24 0 4-2 7-2 11 0v14c0 6-5 10-11 10H40c-6 0-11-4-11-10V60l3-2z" fill="#00a86b" opacity=".88"/>
  <path d="M48 39c-7 9-10 14-10 20 0 7 5 11 10 11s10-4 10-11c0-6-3-11-10-20z" fill="#fff" opacity=".9"/>
</svg>
